<?xml version="1.0" standalone="no"?>
<!DOCTYPE svg PUBLIC "-//W3C//DTD SVG 20010904//EN"
 "http://www.w3.org/TR/2001/REC-SVG-20010904/DTD/svg10.dtd">
<svg version="1.0" xmlns="http://www.w3.org/2000/svg"
 width="1200.000000pt" height="1200.000000pt" viewBox="0 0 1200.000000 1200.000000"
 preserveAspectRatio="xMidYMid meet">
<metadata>
Created by potrace 1.11, written by Peter Selinger 2001-2013
</metadata>
<g transform="translate(0.000000,1200.000000) scale(0.100000,-0.100000)"
fill="#000000" stroke="none">
<path d="M5297 11994 c-1 -1 -26 -4 -55 -8 -69 -8 -104 -13 -247 -37 -163 -27
-163 -27 -183 -33 -9 -3 -30 -7 -45 -10 -127 -22 -370 -85 -572 -149 -71 -22
-132 -41 -135 -42 -3 -1 -12 -4 -20 -7 -8 -3 -55 -20 -105 -38 -721 -259
-1424 -687 -2014 -1225 -170 -155 -442 -442 -581 -615 -25 -30 -47 -57 -51
-60 -17 -14 -228 -302 -303 -415 -71 -106 -172 -267 -216 -345 -5 -8 -24 -42
-43 -75 -39 -68 -170 -327 -214 -425 -54 -117 -61 -134 -83 -190 -12 -30 -28
-68 -35 -85 -27 -57 -149 -403 -160 -450 -3 -11 -16 -58 -31 -105 -14 -47 -27
-92 -29 -100 -2 -8 -17 -71 -34 -140 -17 -69 -34 -138 -37 -155 -3 -16 -10
-48 -15 -70 -6 -22 -13 -51 -14 -65 -4 -27 -13 -80 -20 -120 -3 -14 -7 -38
-10 -55 -3 -16 -7 -39 -9 -51 -2 -12 -7 -45 -11 -75 -3 -30 -11 -85 -16 -123
-5 -38 -6 -73 -2 -77 5 -4 293 -150 640 -325 348 -175 633 -321 633 -324 0 -3
-287 -150 -638 -327 -622 -314 -637 -322 -636 -350 1 -40 26 -229 38 -288 2
-11 9 -54 16 -95 53 -329 189 -810 327 -1155 72 -183 107 -259 230 -505 643
-1288 1783 -2338 3120 -2874 149 -60 350 -133 398 -146 17 -4 66 -19 110 -33
139 -45 429 -117 610 -152 69 -14 259 -44 305 -50 30 -3 83 -11 118 -16 35 -5
66 -8 70 -5 4 2 151 290 327 640 176 350 322 636 325 636 3 0 150 -287 327
-638 356 -706 316 -646 418 -630 28 4 73 10 100 13 61 7 95 12 160 25 28 5 64
12 80 14 74 12 102 17 135 26 19 5 51 12 70 15 18 3 120 28 225 55 1187 305
2257 975 3074 1924 632 736 1097 1666 1300 2601 30 138 36 166 47 234 3 18 8
43 10 55 19 95 44 279 48 354 1 22 -59 54 -636 345 -351 177 -638 324 -638
327 0 3 285 148 633 324 347 175 635 321 639 324 4 4 3 41 -2 82 -6 41 -12 98
-15 125 -4 28 -8 57 -10 65 -2 8 -6 29 -9 45 -22 138 -41 236 -62 330 -14 61
-27 117 -29 126 -47 217 -206 701 -291 886 -7 17 -14 37 -14 45 0 8 -4 18 -9
24 -5 5 -23 43 -41 84 -77 179 -256 517 -372 704 -318 510 -686 946 -1154
1366 -21 20 -88 76 -149 126 -603 493 -1242 844 -1971 1083 -127 42 -382 114
-443 126 -9 1 -34 8 -56 13 -43 12 -188 42 -220 47 -11 2 -72 12 -135 23 -63
11 -140 23 -170 27 -30 3 -84 10 -120 15 -36 5 -68 6 -71 2 -4 -4 -150 -292
-325 -639 -176 -348 -321 -633 -324 -633 -3 0 -147 282 -320 627 -173 345
-320 633 -326 640 -9 10 -48 14 -57 7z m908 -2478 c66 -4 136 -8 155 -11 19
-3 55 -7 80 -10 81 -10 115 -15 142 -20 15 -4 39 -8 55 -10 172 -23 525 -129
748 -224 79 -34 304 -147 367 -185 460 -272 764 -545 1106 -996 38 -50 140
-207 194 -300 64 -109 198 -382 198 -402 0 -8 4 -18 9 -24 15 -17 98 -256 135
-389 33 -121 80 -339 91 -423 2 -20 7 -57 10 -82 3 -25 8 -56 10 -70 25 -152
21 -563 -6 -774 -6 -43 -12 -92 -14 -110 -13 -129 -79 -408 -138 -586 -90
-273 -174 -451 -372 -789 -21 -35 -131 -189 -193 -271 -183 -238 -430 -480
-681 -666 -47 -35 -90 -67 -96 -71 -143 -108 -502 -300 -709 -380 -95 -36
-313 -110 -350 -118 -11 -2 -46 -11 -76 -19 -62 -18 -224 -52 -285 -61 -23 -3
-50 -7 -60 -9 -96 -18 -331 -36 -490 -39 -100 -1 -354 10 -391 17 -10 2 -48 7
-84 11 -85 8 -102 11 -250 41 -458 91 -895 273 -1283 536 -227 153 -461 357
-641 558 -90 100 -90 100 -153 180 -392 495 -658 1131 -728 1740 -4 36 -9 74
-11 85 -5 25 -17 272 -17 350 -1 106 14 351 27 440 3 22 8 59 11 83 3 23 15
89 26 145 11 56 22 113 25 127 27 139 155 525 209 630 7 14 39 79 71 145 31
66 74 147 94 180 20 33 39 67 43 75 4 8 28 47 54 87 196 294 399 529 639 739
100 87 101 88 194 158 115 88 134 101 230 162 146 93 154 97 335 187 250 125
569 242 745 274 14 2 50 10 80 18 30 7 75 16 100 20 25 4 54 9 65 11 26 6 78
12 143 20 29 3 63 7 75 10 12 2 85 7 162 10 77 4 141 7 142 8 3 3 116 -1 258
-8z"/>
<path d="M5909 6816 c-2 -2 -25 -6 -50 -9 -66 -8 -191 -53 -263 -94 -250 -145
-404 -400 -412 -683 -5 -163 25 -290 100 -425 120 -218 321 -363 564 -409 339
-64 669 85 859 390 16 24 54 106 57 119 1 6 5 15 9 22 24 39 46 193 42 302 -7
216 -85 398 -236 550 -109 109 -285 203 -424 227 -38 7 -241 15 -246 10z"/>
</g>
</svg>
